<?xml version="1.0" encoding="UTF-8"?>
<svg id="Layer_1" data-name="Layer 1" xmlns="http://www.w3.org/2000/svg" viewBox="0 0 1080 1088.92">
  <defs>
    <style>
      .cls-1 {
        fill: none;
      }

      .cls-2 {
        stroke: #ffca71;
        stroke-miterlimit: 10;
      }

      .cls-2, .cls-3 {
        fill: #ffca71;
      }
    </style>
  </defs>
  <path class="cls-3" d="M540.23,1062.28c-70.06,0-138.04-13.73-202.05-40.8-61.81-26.14-117.32-63.57-164.98-111.23-47.66-47.66-85.08-103.17-111.23-164.98-27.07-64.01-40.8-131.99-40.8-202.05s13.73-138.04,40.8-202.05c26.14-61.81,63.57-117.32,111.23-164.98s103.17-85.08,164.98-111.23c64.01-27.07,131.99-40.8,202.05-40.8s138.04,13.73,202.05,40.8c61.81,26.14,117.32,63.57,164.98,111.23,47.66,47.66,85.08,103.17,111.23,164.98,27.08,64.01,40.8,131.99,40.8,202.05s-13.73,138.04-40.8,202.05c-26.14,61.81-63.57,117.32-111.23,164.98-47.66,47.66-103.17,85.08-164.98,111.23-64.01,27.08-131.99,40.8-202.05,40.8ZM540.23,84.17c-61.99,0-122.1,12.13-178.68,36.06-54.66,23.12-103.76,56.22-145.93,98.39-42.17,42.17-75.27,91.27-98.39,145.93-23.93,56.58-36.06,116.69-36.06,178.68s12.13,122.1,36.06,178.68c23.12,54.66,56.22,103.76,98.39,145.92,42.17,42.17,91.27,75.27,145.93,98.39,56.58,23.93,116.69,36.06,178.68,36.06s122.1-12.13,178.68-36.06c54.66-23.12,103.76-56.22,145.93-98.39,42.17-42.17,75.27-91.27,98.39-145.93,23.93-56.58,36.06-116.69,36.06-178.68s-12.13-122.1-36.06-178.68c-23.12-54.66-56.22-103.76-98.39-145.93-42.17-42.17-91.26-75.27-145.92-98.39-56.58-23.93-116.69-36.06-178.68-36.06Z"/>
  <g>
    <path class="cls-2" d="M651.91,379.56v-96.04s-89.44-15.31-130.47,0c-72.77,27.16-48.93,134.1-48.93,164.9s-68.86,16.31-68.86,16.31v88.79h59.8l-1.81,268.19h112.35v-273.12h77.92v-87.48l-77.92,1.81s-16.31-68.86,3.62-77.92c19.93-9.06,74.3-5.44,74.3-5.44Z"/>
    <path class="cls-1" d="M574.49,822.22h-113.35l1.81-268.19h-59.8v-89.91l.6.13c.46.1,46.31,9.55,62.58-3.65,3.77-3.06,5.68-7.15,5.68-12.17s-.62-11.9-1.34-19.98c-3.8-42.79-10.88-122.44,50.59-145.38,21.28-7.94,55.7-7.52,80.83-5.77,27.2,1.89,49.68,5.71,49.9,5.75l.42.07v97l-.53-.04c-.54-.04-54.46-3.51-74.06,5.39-18.56,8.44-4.71,71.35-3.44,76.96l78.02-1.81v88.5h-77.92v273.12ZM462.14,821.22h111.35v-273.12h77.92v-86.47l-77.81,1.81-.09-.39c-.67-2.83-16.17-69.37,3.9-78.49,18.76-8.53,68.3-5.85,74-5.51v-95.09c-6.68-1.1-90.79-14.51-129.8.04-60.76,22.68-53.72,101.83-49.94,144.36.72,8.11,1.34,15.12,1.34,20.07,0,5.33-2.04,9.69-6.05,12.95-7,5.68-19.81,8.05-38.08,7.05-11.8-.65-22.17-2.58-24.73-3.08v87.68h59.8l-1.81,268.19Z"/>
  </g>
</svg>