<?xml version="1.0" encoding="UTF-8"?>
<svg id="Layer_1" data-name="Layer 1" xmlns="http://www.w3.org/2000/svg" viewBox="0 0 1080 1090.32">
  <defs>
    <style>
      .cls-1 {
        fill: #ffca72;
      }
    </style>
  </defs>
  <path class="cls-1" d="M540.23,1060.13c-69.4,0-136.73-13.67-200.14-40.63-61.21-26.03-116.18-63.29-163.38-110.73-47.18-47.43-84.23-102.68-110.11-164.19-26.8-63.69-40.38-131.33-40.38-201.03s13.59-137.34,40.38-201.03c25.88-61.51,62.93-116.75,110.11-164.19,47.19-47.45,102.16-84.7,163.38-110.73,63.4-26.96,130.74-40.63,200.14-40.63s136.73,13.67,200.14,40.63c61.21,26.03,116.18,63.28,163.38,110.73,47.18,47.43,84.23,102.67,110.11,164.19,26.8,63.69,40.38,131.33,40.38,201.03s-13.59,137.34-40.38,201.03c-25.88,61.51-62.93,116.75-110.11,164.19-47.19,47.44-102.16,84.7-163.38,110.73-63.4,26.96-130.74,40.63-200.14,40.63ZM540.23,86.97c-61.28,0-120.72,12.06-176.66,35.85-54.06,22.99-102.61,55.9-144.32,97.83-41.72,41.94-74.47,90.77-97.34,145.14-23.68,56.29-35.69,116.09-35.69,177.77s12.01,121.48,35.69,177.77c22.88,54.37,55.63,103.2,97.34,145.14,41.71,41.93,90.26,74.84,144.32,97.83,55.94,23.79,115.37,35.85,176.66,35.85s120.72-12.06,176.66-35.85c54.05-22.99,102.61-55.9,144.32-97.83,41.72-41.94,74.47-90.77,97.34-145.14,23.68-56.29,35.69-116.09,35.69-177.77s-12.01-121.48-35.69-177.77c-22.88-54.37-55.63-103.2-97.34-145.14-41.71-41.93-90.26-74.84-144.32-97.83-55.94-23.79-115.37-35.85-176.66-35.85Z"/>
  <path class="cls-1" d="M586.53,826.39h-107.43c-86.92,0-147.22-22.75-184.33-69.53-38.25-48.22-42.67-113.56-42.67-158.52v-108.01c0-58.25,0-113.28,29.89-156.85,33.33-48.58,95.96-71.21,197.12-71.21h107.43c47.19,0,85.45,5.73,116.98,17.53,30.81,11.53,55.32,29.26,72.83,52.69,32.69,43.75,37.2,101.71,37.2,157.83v108.01c0,23.36-.69,53.84-6.07,82.45-5.71,30.34-15.89,55-31.13,75.39-17.51,23.43-42.01,41.16-72.83,52.69-31.52,11.8-69.79,17.53-116.98,17.53ZM479.1,322.28c-116.67,0-139.98,33.98-147.64,45.15-19.36,28.23-19.36,72.1-19.36,122.9v108.01c0,57.18,9.43,95.71,29.68,121.23,24.99,31.51,69.91,46.82,137.33,46.82h107.43c107.26,0,133.21-34.73,141.74-46.14,13.12-17.56,25.26-44.48,25.26-121.92v-108.01c0-77.44-12.14-104.36-25.26-121.92-34.48-46.14-115.21-46.14-141.74-46.14h-107.43Z"/>
  <path class="cls-1" d="M532.82,689.97c-79.97,0-145.03-65.33-145.03-145.64s65.06-145.64,145.03-145.64,145.03,65.33,145.03,145.64-65.06,145.64-145.03,145.64ZM532.82,458.69c-46.89,0-85.03,38.42-85.03,85.64s38.14,85.64,85.03,85.64,85.03-38.42,85.03-85.64-38.14-85.64-85.03-85.64Z"/>
  <g>
    <ellipse class="cls-1" cx="647.85" cy="400.85" rx="21.15" ry="21.27"/>
    <path class="cls-1" d="M647.85,427.12c-14.42,0-26.16-11.78-26.16-26.27s11.73-26.27,26.16-26.27,26.15,11.78,26.15,26.27-11.73,26.27-26.15,26.27ZM647.85,384.59c-8.91,0-16.16,7.3-16.16,16.27s7.25,16.27,16.16,16.27,16.15-7.3,16.15-16.27-7.25-16.27-16.15-16.27Z"/>
  </g>
</svg>